<svg width="174" height="32" viewBox="0 0 174 32" fill="none" xmlns="http://www.w3.org/2000/svg">
<path d="M51.1766 25.114C49.2866 25.114 47.5676 24.664 46.0196 23.764C44.4896 22.864 43.2926 21.622 42.4286 20.038C41.5646 18.454 41.1326 16.681 41.1326 14.719C41.1326 12.757 41.5646 10.984 42.4286 9.4C43.2926 7.816 44.4896 6.583 46.0196 5.701C47.5496 4.801 49.2686 4.351 51.1766 4.351C52.5626 4.351 53.8316 4.594 54.9836 5.08C56.1356 5.548 57.1076 6.187 57.8996 6.997C58.7096 7.789 59.2946 8.671 59.6546 9.643L56.3606 11.182C55.9646 10.138 55.3076 9.301 54.3896 8.671C53.4896 8.023 52.4186 7.699 51.1766 7.699C49.9346 7.699 48.8276 7.996 47.8556 8.59C46.8836 9.166 46.1276 9.985 45.5876 11.047C45.0656 12.109 44.8046 13.333 44.8046 14.719C44.8046 16.105 45.0656 17.329 45.5876 18.391C46.1276 19.453 46.8836 20.281 47.8556 20.875C48.8276 21.469 49.9346 21.766 51.1766 21.766C52.4186 21.766 53.4896 21.451 54.3896 20.821C55.3076 20.173 55.9646 19.327 56.3606 18.283L59.6546 19.822C59.2946 20.794 58.7096 21.685 57.8996 22.495C57.1076 23.287 56.1356 23.926 54.9836 24.412C53.8316 24.88 52.5626 25.114 51.1766 25.114Z" fill="#0C0C0C"/>
<path d="M61.2587 4.351H64.7957V24.79H61.2587V4.351Z" fill="#0C0C0C"/>
<path d="M66.9815 10.102H70.5185V24.79H66.9815V10.102ZM68.7365 8.077C68.1065 8.077 67.6115 7.897 67.2515 7.537C66.8915 7.177 66.7115 6.682 66.7115 6.052C66.7115 5.404 66.8915 4.9 67.2515 4.54C67.6115 4.18 68.1065 4 68.7365 4C69.3845 4 69.8885 4.18 70.2485 4.54C70.6085 4.9 70.7885 5.404 70.7885 6.052C70.7885 6.7 70.6085 7.204 70.2485 7.564C69.8885 7.906 69.3845 8.077 68.7365 8.077Z" fill="#0C0C0C"/>
<path d="M72.7042 10.102H76.0252V13.018L75.7012 12.289C76.2052 11.497 76.8892 10.885 77.7532 10.453C78.6352 10.003 79.6342 9.778 80.7502 9.778C82.1182 9.778 83.3692 10.12 84.5032 10.804C85.6372 11.488 86.5282 12.415 87.1762 13.585C87.8242 14.737 88.1482 16.024 88.1482 17.446C88.1482 18.868 87.8242 20.164 87.1762 21.334C86.5282 22.504 85.6372 23.431 84.5032 24.115C83.3872 24.781 82.1272 25.114 80.7232 25.114C79.6432 25.114 78.6532 24.898 77.7532 24.466C76.8712 24.034 76.1782 23.431 75.6742 22.657L76.2412 21.955V30.19H72.7042V10.102ZM80.3182 21.874C81.1102 21.874 81.8212 21.685 82.4512 21.307C83.0992 20.929 83.5942 20.407 83.9362 19.741C84.2962 19.057 84.4762 18.292 84.4762 17.446C84.4762 16.6 84.2962 15.844 83.9362 15.178C83.5942 14.512 83.0992 13.99 82.4512 13.612C81.8212 13.216 81.1102 13.018 80.3182 13.018C79.5442 13.018 78.8422 13.207 78.2122 13.585C77.6002 13.963 77.1142 14.494 76.7542 15.178C76.4122 15.862 76.2412 16.618 76.2412 17.446C76.2412 18.292 76.4122 19.057 76.7542 19.741C77.1142 20.407 77.6002 20.929 78.2122 21.307C78.8422 21.685 79.5442 21.874 80.3182 21.874Z" fill="#0C0C0C"/>
<path d="M90.0618 4.675H96.6228C98.7288 4.675 100.574 5.098 102.158 5.944C103.742 6.79 104.966 7.978 105.83 9.508C106.694 11.02 107.126 12.757 107.126 14.719C107.126 16.681 106.694 18.427 105.83 19.957C104.966 21.469 103.733 22.657 102.131 23.521C100.547 24.367 98.7108 24.79 96.6228 24.79H90.0618V4.675ZM96.7038 21.55C98.0538 21.55 99.2328 21.271 100.241 20.713C101.267 20.155 102.05 19.363 102.59 18.337C103.148 17.311 103.427 16.105 103.427 14.719C103.427 13.333 103.148 12.136 102.59 11.128C102.05 10.102 101.267 9.31 100.241 8.752C99.2328 8.194 98.0538 7.915 96.7038 7.915H93.7338V21.55H96.7038Z" fill="#0C0C0C"/>
<path d="M115.826 25.114C114.422 25.114 113.117 24.781 111.911 24.115C110.723 23.449 109.787 22.531 109.103 21.361C108.419 20.191 108.077 18.886 108.077 17.446C108.077 15.988 108.419 14.683 109.103 13.531C109.787 12.361 110.723 11.443 111.911 10.777C113.099 10.111 114.404 9.778 115.826 9.778C117.266 9.778 118.571 10.111 119.741 10.777C120.929 11.443 121.865 12.361 122.549 13.531C123.251 14.701 123.602 16.006 123.602 17.446C123.602 18.904 123.251 20.218 122.549 21.388C121.865 22.54 120.929 23.449 119.741 24.115C118.553 24.781 117.248 25.114 115.826 25.114ZM115.853 21.874C116.627 21.874 117.32 21.685 117.932 21.307C118.544 20.929 119.021 20.407 119.363 19.741C119.723 19.057 119.903 18.292 119.903 17.446C119.903 16.6 119.723 15.844 119.363 15.178C119.021 14.512 118.544 13.99 117.932 13.612C117.32 13.216 116.618 13.018 115.826 13.018C115.052 13.018 114.35 13.216 113.72 13.612C113.108 13.99 112.622 14.512 112.262 15.178C111.92 15.844 111.749 16.6 111.749 17.446C111.749 18.292 111.92 19.057 112.262 19.741C112.622 20.407 113.108 20.929 113.72 21.307C114.35 21.685 115.061 21.874 115.853 21.874Z" fill="#0C0C0C"/>
<path d="M132.332 30.73C130.676 30.73 129.227 30.343 127.985 29.569C126.743 28.795 125.879 27.751 125.393 26.437L128.687 25.195C128.903 25.897 129.335 26.455 129.983 26.869C130.631 27.283 131.414 27.49 132.332 27.49C133.052 27.49 133.682 27.355 134.222 27.085C134.78 26.815 135.212 26.419 135.518 25.897C135.824 25.375 135.977 24.763 135.977 24.061V20.713L136.652 21.523C136.148 22.405 135.473 23.071 134.627 23.521C133.781 23.971 132.818 24.196 131.738 24.196C130.388 24.196 129.164 23.881 128.066 23.251C126.986 22.621 126.14 21.757 125.528 20.659C124.916 19.561 124.61 18.328 124.61 16.96C124.61 15.61 124.907 14.386 125.501 13.288C126.113 12.19 126.95 11.335 128.012 10.723C129.092 10.093 130.307 9.778 131.657 9.778C132.755 9.778 133.718 10.003 134.546 10.453C135.374 10.903 136.076 11.569 136.652 12.451L136.166 13.342V10.102H139.514V24.061C139.514 25.339 139.208 26.482 138.596 27.49C137.984 28.498 137.129 29.29 136.031 29.866C134.951 30.442 133.718 30.73 132.332 30.73ZM132.17 20.929C132.908 20.929 133.565 20.767 134.141 20.443C134.717 20.101 135.167 19.633 135.491 19.039C135.815 18.445 135.977 17.761 135.977 16.987C135.977 16.231 135.806 15.556 135.464 14.962C135.14 14.35 134.69 13.873 134.114 13.531C133.556 13.189 132.908 13.018 132.17 13.018C131.432 13.018 130.766 13.189 130.172 13.531C129.578 13.873 129.11 14.35 128.768 14.962C128.444 15.574 128.282 16.249 128.282 16.987C128.282 17.743 128.444 18.418 128.768 19.012C129.11 19.606 129.578 20.074 130.172 20.416C130.766 20.758 131.432 20.929 132.17 20.929Z" fill="#0C0C0C"/>
<path d="M148.839 30.73C147.183 30.73 145.734 30.343 144.492 29.569C143.25 28.795 142.386 27.751 141.9 26.437L145.194 25.195C145.41 25.897 145.842 26.455 146.49 26.869C147.138 27.283 147.921 27.49 148.839 27.49C149.559 27.49 150.189 27.355 150.729 27.085C151.287 26.815 151.719 26.419 152.025 25.897C152.331 25.375 152.484 24.763 152.484 24.061V20.713L153.159 21.523C152.655 22.405 151.98 23.071 151.134 23.521C150.288 23.971 149.325 24.196 148.245 24.196C146.895 24.196 145.671 23.881 144.573 23.251C143.493 22.621 142.647 21.757 142.035 20.659C141.423 19.561 141.117 18.328 141.117 16.96C141.117 15.61 141.414 14.386 142.008 13.288C142.62 12.19 143.457 11.335 144.519 10.723C145.599 10.093 146.814 9.778 148.164 9.778C149.262 9.778 150.225 10.003 151.053 10.453C151.881 10.903 152.583 11.569 153.159 12.451L152.673 13.342V10.102H156.021V24.061C156.021 25.339 155.715 26.482 155.103 27.49C154.491 28.498 153.636 29.29 152.538 29.866C151.458 30.442 150.225 30.73 148.839 30.73ZM148.677 20.929C149.415 20.929 150.072 20.767 150.648 20.443C151.224 20.101 151.674 19.633 151.998 19.039C152.322 18.445 152.484 17.761 152.484 16.987C152.484 16.231 152.313 15.556 151.971 14.962C151.647 14.35 151.197 13.873 150.621 13.531C150.063 13.189 149.415 13.018 148.677 13.018C147.939 13.018 147.273 13.189 146.679 13.531C146.085 13.873 145.617 14.35 145.275 14.962C144.951 15.574 144.789 16.249 144.789 16.987C144.789 17.743 144.951 18.418 145.275 19.012C145.617 19.606 146.085 20.074 146.679 20.416C147.273 20.758 147.939 20.929 148.677 20.929Z" fill="#0C0C0C"/>
<path d="M163.105 23.305L163.267 26.275L156.868 10.102H160.675L165.157 22.036H163.807L168.262 10.102H172.096L164.158 30.19H160.351L163.105 23.305Z" fill="#0C0C0C"/>
<g clip-path="url(#clip0_525_33127)">
<path d="M24.5851 17.7748C24.3366 18.3167 24.6349 18.215 24.7817 18.4351C25.2952 19.2068 26.0904 20.5538 26.8074 21.0966C27.3346 21.4957 28.6727 22.6871 29.0689 23.2172C29.3193 23.5518 29.7634 24.435 29.9648 24.8459C30.227 25.3809 30.047 25.4005 30.1791 25.824C30.2211 25.96 30.407 26.0363 30.4383 26.1566C30.5781 26.6936 30.3062 28.1158 30.1908 28.6948C30.1644 28.8249 30.2759 28.9609 30.1928 29.1947C30.0226 29.672 28.1748 31.058 27.8061 31.6068C26.823 32.1741 24.3327 32.0822 23.2929 31.6352C22.3921 31.2478 21.366 30.6942 20.4035 30.5142C20.0034 30.4389 17.4671 30.4379 17.1688 30.5582C17.0563 30.6042 17.0641 30.7675 16.9829 30.7832C16.1847 30.9456 16.3266 30.9984 15.6536 31.2957C15.4551 31.3838 14.9758 31.6361 14.9357 31.6498C14.8085 31.6919 13.7042 31.8777 13.5848 31.8572C13.5281 31.8474 12.8992 31.6606 12.8669 31.641C12.8101 31.6068 12.8131 31.4307 12.683 31.3847C12.5676 31.3437 12.3847 31.4669 12.1372 31.3525C11.9063 31.2459 11.8027 30.9974 11.6256 30.8761C11.2901 30.6462 10.9683 30.5983 10.6289 30.165C10.2132 29.6348 9.73193 28.9042 9.3661 28.3447C9.28198 28.2156 9.05603 28.1803 8.94257 27.9857C8.6951 27.5622 8.81639 26.5136 8.83399 26.0382C8.84475 25.7457 8.77433 25.2058 8.83204 24.9828C8.85845 24.8811 9.06386 24.8938 9.11081 24.7549C9.23992 24.3763 9.1245 24.2824 9.4199 23.8159C10.0948 22.7507 10.8138 22.2538 11.6579 21.3314C11.7244 21.258 11.7244 21.0908 11.7919 21.0252C11.9298 20.8902 12.2546 20.9489 12.4502 20.8482C12.5226 20.811 12.9794 20.272 13.1848 20.1204C13.3227 20.0187 13.5066 20.0559 13.5966 19.9923C14.2236 19.5443 15.3445 17.7964 15.6262 17.0843C15.8629 16.4847 16.0331 15.3402 16.3765 14.8023C16.4263 14.723 17.651 13.559 17.7371 13.5219C17.9454 13.4309 18.1567 13.5082 18.3513 13.4514C18.546 13.3947 18.6683 13.1306 19.0683 13.0866C19.306 13.0612 20.2587 13.1414 20.5228 13.1795C21.3846 13.3057 22.1358 13.7527 22.9193 14.1088C23.0865 14.2496 22.9917 14.5538 23.0621 14.7485C23.2959 15.3901 23.9884 16.4309 24.1478 16.9884C24.2163 17.229 24.1576 17.456 24.2349 17.6858L24.5841 17.7768L24.5851 17.7748Z" fill="#0C0C0C"/>
<path d="M34.6356 9.77851C34.8351 9.88122 35.4494 11.0413 35.5785 11.3289C35.7077 11.6164 36.1263 12.7315 36.1273 12.9321C36.1273 13.0426 35.9571 13.2001 35.9268 13.4162C35.6382 15.5046 36.0119 17.1459 34.5642 18.9007C34.3392 19.1726 34.2541 19.6558 34.1191 19.9258C34.1064 19.9502 33.7416 20.2926 33.7152 20.3014C33.3621 20.4188 33.3581 20.1478 33.1439 20.7073C32.603 20.2515 31.5456 20.6809 30.9138 20.4931C30.8433 20.4726 29.8848 19.739 29.7478 19.6284C29.3517 19.3086 29.1492 18.8205 28.5897 18.6894C28.5721 18.4742 28.6327 18.2277 28.5936 18.0204C28.5349 17.7113 28.2561 17.7494 28.2933 17.1293C28.3129 16.8094 28.4801 16.9464 28.5046 16.7546C28.667 15.5075 28.2425 13.9386 28.622 12.7658C28.7716 12.3021 29.9767 10.0778 30.2653 9.90958C30.3856 9.83916 30.5597 9.85383 30.7005 9.75797C30.8512 9.65527 30.993 9.38236 31.1397 9.31683C31.3265 9.23271 32.4162 9.22684 32.6588 9.26107C32.9014 9.29531 33.0236 9.45475 33.2388 9.47138C33.454 9.488 33.6917 9.3628 33.8159 9.38628C33.9587 9.41366 34.0438 9.64842 34.171 9.70613C34.3275 9.77754 34.5104 9.71787 34.6336 9.78145L34.6356 9.77851Z" fill="#0C0C0C"/>
<path d="M17.4094 0.984015C18.1597 1.68534 18.5128 3.2269 18.4296 4.23341C18.4022 4.56696 18.1861 5.05799 18.1342 5.40425C17.9249 6.81865 17.7645 8.20566 17.3292 9.59169C17.3018 9.67776 16.8802 9.97903 16.7795 10.1101C16.6279 10.3087 16.2415 11.0325 16.1447 11.0941C16.0478 11.1557 15.8757 11.1156 15.7309 11.2183C15.279 11.5392 15.2145 11.9099 14.4809 11.6888C14.339 11.6458 14.2803 11.459 14.0691 11.4169C13.7551 11.3553 13.3002 11.4932 13.0088 11.3983C12.6625 11.2858 11.8721 9.40584 11.7127 8.98132C11.5249 8.48247 11.5758 8.35238 11.4594 7.96308C11.4183 7.82418 11.2305 7.76451 11.1874 7.55128C11.0789 7.01134 11.4124 6.54574 11.3889 6.38826C11.3762 6.30023 10.803 6.24741 11.1131 5.42577C11.4496 4.53468 11.2354 4.48284 11.3821 3.73945C11.4242 3.52719 11.6129 3.46655 11.655 3.32765C11.8066 2.81804 11.6814 2.49231 12.0648 1.87999C12.2996 1.50537 12.686 1.45744 12.5539 0.949779C13.1868 1.07107 13.0254 0.753172 13.2337 0.504724C13.4206 0.280729 14.2226 0.426472 14.5591 0.360936C14.969 0.281707 14.9357 -0.178021 15.728 0.0762964C16.1525 0.213237 17.0769 0.671986 17.4114 0.984993L17.4094 0.984015Z" fill="#0C0C0C"/>
<path d="M27.4658 2.6674C27.9813 3.41079 27.7964 4.46425 27.9148 5.29763C27.9382 5.46685 28.1309 5.58227 28.1094 5.78377C28.0947 5.92267 27.9324 6.05178 27.904 6.27578C27.8619 6.60345 28.0341 6.95363 27.9705 7.21479C27.9157 7.4427 27.6595 7.40064 27.6145 7.64616C27.5617 7.93666 27.6683 8.29369 27.5959 8.60767C27.4902 9.06936 26.7508 10.3253 26.336 10.5757C26.248 10.6285 25.2826 11.0931 25.221 11.0912C25.1427 11.0892 25.042 10.8897 24.8483 10.9357C24.6986 10.9709 24.4873 11.3162 24.3387 11.4159C24.0707 10.8359 23.1209 11.2956 22.6289 11.0726C22.5506 11.0374 22.0586 10.5278 21.9999 10.43C21.592 9.74428 21.372 8.83069 21.0932 8.11077C21.0306 7.94938 20.743 8.04622 20.8702 7.46031C20.9034 7.30576 21.0609 7.1786 21.0629 7.0622C21.0658 6.8744 20.7645 6.73844 20.7205 6.5389C20.7039 6.46456 20.6892 5.14797 20.7 5.02277C20.7244 4.74302 21.1636 3.57316 21.3543 3.34525L21.1577 2.95987C21.5529 2.83271 21.5989 2.33581 21.7446 2.17148C21.8464 2.05704 22.1848 1.98466 22.3873 1.73816C22.4958 1.60514 22.5487 1.33712 22.622 1.28822C22.755 1.20116 22.9839 1.27354 23.1434 1.22268C23.2911 1.17573 23.3458 0.992817 23.5561 0.950756C23.8711 0.889133 24.3064 1.02412 24.6116 0.930215C24.7632 0.883264 24.8424 0.6534 25.0204 0.6534C25.1769 0.6534 25.3373 0.885221 25.531 0.929237C25.8 0.99086 26.0847 0.889133 26.3468 0.993795C26.6979 1.56405 27.0824 2.11768 27.4638 2.66642L27.4658 2.6674Z" fill="#0C0C0C"/>
<path d="M10.4724 15.4038C10.1907 16.0846 10.3149 15.9398 10.1995 16.6431C10.1623 16.8691 8.89659 18.8273 8.72346 18.9388C8.66477 18.977 8.51121 18.8557 8.40948 18.8723C8.27058 18.8958 8.13364 19.1863 7.89595 19.2137C7.79814 19.2254 6.64686 19.1628 6.53927 19.1413C6.31234 19.0963 6.23017 18.8753 6.13334 18.8567C6.01302 18.8342 5.9113 19.0445 5.77436 19.0278C5.29507 18.9692 4.32572 18.0252 4.82653 17.5313L4.33648 17.3816C4.24552 17.1214 4.52624 16.8554 4.51059 16.6656C4.48418 16.3389 4.08119 16.0005 4.03815 15.6757C3.9912 15.3217 3.9824 13.7429 4.045 13.4221C4.08706 13.2108 4.27486 13.1512 4.3179 13.0103C4.41963 12.6748 4.49299 12.2493 4.61232 11.8375C4.66808 11.6438 4.58493 11.4326 4.65829 11.2447C4.67297 11.2076 5.18356 10.7038 5.21877 10.6862C5.38897 10.6011 5.57482 10.6716 5.68535 10.6119C5.73914 10.5825 5.88978 10.1923 6.10008 10.0984C6.39059 9.96827 6.72022 10.115 7.0078 10.0279C7.14963 9.9849 7.21419 9.79025 7.42253 9.75308C7.89595 9.66798 7.92236 9.99468 8.20211 10.0475C8.74205 10.1482 9.02864 10.0563 9.57151 10.4388C10.354 10.9895 10.1418 11.2467 10.2102 12.0488C10.2249 12.216 10.3746 12.353 10.3844 12.4625C10.3961 12.5995 10.1819 12.7198 10.1995 12.9301C10.2151 13.1208 10.4362 13.1981 10.4802 13.3448C10.5653 13.6295 10.581 15.1436 10.4734 15.4058L10.4724 15.4038Z" fill="#0C0C0C"/>
</g>
<defs>
<clipPath id="clip0_525_33127">
<rect width="32.1262" height="32" fill="white" transform="translate(4)"/>
</clipPath>
</defs>
</svg>
